/* XPM */
static char * dvdisaster48_xpm[] = {
"48 48 207 2",
"  	c None",
". 	c #000000",
"+ 	c #0A0A0A",
"@ 	c #3D3D3D",
"# 	c #6E6E6E",
"$ 	c #909090",
"% 	c #A8A8A8",
"& 	c #ACACAC",
"* 	c #A2A2A2",
"= 	c #707070",
"- 	c #252525",
"; 	c #0B0B0B",
"> 	c #5F5F5F",
", 	c #B6B6B6",
"' 	c #F6F6F6",
") 	c #FFFFFF",
"! 	c #BBBBBB",
"~ 	c #303030",
"{ 	c #010104",
"] 	c #121212",
"^ 	c #828282",
"/ 	c #EEEEEE",
"( 	c #FBFBFB",
"_ 	c #747474",
": 	c #010101",
"< 	c #101437",
"[ 	c #222B77",
"} 	c #050611",
"| 	c #6B6B6B",
"1 	c #EDEDED",
"2 	c #8F8F8F",
"3 	c #1E2568",
"4 	c #4152E4",
"5 	c #1D2566",
"6 	c #000001",
"7 	c #191919",
"8 	c #BDBDBD",
"9 	c #6A6A6A",
"0 	c #3441B5",
"a 	c #4658F5",
"b 	c #3441B6",
"c 	c #070918",
"d 	c #343434",
"e 	c #E6E6E6",
"f 	c #232323",
"g 	c #0F1334",
"h 	c #3F4FDD",
"i 	c #0E1232",
"j 	c #414141",
"k 	c #F4F4F4",
"l 	c #C8C8C8",
"m 	c #515151",
"n 	c #1D1D1D",
"o 	c #A3A3A3",
"p 	c #3745C1",
"q 	c #4354EB",
"r 	c #12163E",
"s 	c #9F9F9F",
"t 	c #040404",
"u 	c #070817",
"v 	c #1A215C",
"w 	c #F8F8F8",
"x 	c #0E0E0E",
"y 	c #20286F",
"z 	c #DDDDDD",
"A 	c #080808",
"B 	c #131843",
"C 	c #4253E8",
"D 	c #484848",
"E 	c #0F1233",
"F 	c #7E7E7E",
"G 	c #6F6F6F",
"H 	c #04050D",
"I 	c #595959",
"J 	c #0A0D23",
"K 	c #808080",
"L 	c #626262",
"M 	c #060815",
"N 	c #4658F4",
"O 	c #7A7A7A",
"P 	c #010102",
"Q 	c #A9A9A9",
"R 	c #2D399E",
"S 	c #5E5E5E",
"T 	c #080A1B",
"U 	c #242D7D",
"V 	c #FCFCFC",
"W 	c #3B3B3B",
"X 	c #020308",
"Y 	c #263085",
"Z 	c #3D4DD6",
"` 	c #2B2B2B",
" .	c #151A49",
"..	c #4152E5",
"+.	c #03040B",
"@.	c #ECECEC",
"#.	c #4D4D4D",
"$.	c #DBDBDB",
"%.	c #293490",
"&.	c #D1D1D1",
"*.	c #9C9C9C",
"=.	c #6D6D6D",
"-.	c #020309",
";.	c #4151E2",
">.	c #323FAF",
",.	c #CFCFCF",
"'.	c #060606",
").	c #1D2567",
"!.	c #4455ED",
"~.	c #030309",
"{.	c #060816",
"].	c #4051E1",
"^.	c #11153B",
"/.	c #EAEAEA",
"(.	c #3341B4",
"_.	c #1E266A",
":.	c #BEBEBE",
"<.	c #020206",
"[.	c #2F3BA4",
"}.	c #28328B",
"|.	c #B2B2B2",
"1.	c #4F4F4F",
"2.	c #090B20",
"3.	c #3745BF",
"4.	c #2E3AA2",
"5.	c #D4D4D4",
"6.	c #8A8A8A",
"7.	c #5B5B5B",
"8.	c #424242",
"9.	c #3F3F3F",
"0.	c #262626",
"a.	c #050505",
"b.	c #080A1C",
"c.	c #2F3BA5",
"d.	c #FEFEFE",
"e.	c #A6A6A6",
"f.	c #353535",
"g.	c #000102",
"h.	c #090B1E",
"i.	c #101439",
"j.	c #12163D",
"k.	c #171D51",
"l.	c #222B78",
"m.	c #3543B9",
"n.	c #4557F3",
"o.	c #393939",
"p.	c #2B3697",
"q.	c #C7C7C7",
"r.	c #04040C",
"s.	c #2C3799",
"t.	c #4657F3",
"u.	c #D5D5D5",
"v.	c #080B1D",
"w.	c #3B4ACF",
"x.	c #F7F7F7",
"y.	c #2A2A2A",
"z.	c #050713",
"A.	c #3D4CD4",
"B.	c #898989",
"C.	c #323EAD",
"D.	c #F9F9F9",
"E.	c #171717",
"F.	c #161C4D",
"G.	c #3948C9",
"H.	c #2B3696",
"I.	c #3644BE",
"J.	c #4151E3",
"K.	c #151B4A",
"L.	c #4557F2",
"M.	c #101539",
"N.	c #090909",
"O.	c #8B8B8B",
"P.	c #DFDFDF",
"Q.	c #242424",
"R.	c #171D52",
"S.	c #A4A4A4",
"T.	c #070707",
"U.	c #202971",
"V.	c #1B225E",
"W.	c #161616",
"X.	c #232C7A",
"Y.	c #181F56",
"Z.	c #141414",
"`.	c #1D2465",
" +	c #222B79",
".+	c #E5E5E5",
"++	c #3C3C3C",
"@+	c #11163D",
"#+	c #3D4CD5",
"$+	c #464646",
"%+	c #F2F2F2",
"&+	c #3F4FDC",
"*+	c #7F7F7F",
"=+	c #181818",
"-+	c #2A3593",
";+	c #3745C0",
">+	c #161C4E",
",+	c #404040",
"'+	c #4355EB",
")+	c #C3C3C3",
"!+	c #1C2362",
"~+	c #273188",
"{+	c #212A74",
"]+	c #3644BD",
"^+	c #0D112F",
"/+	c #212A75",
"(+	c #2D399F",
"                                                                                                ",
"                                    . . . . . . . . . . . .                                     ",
"                              . . . + @ # $ % & & * = - . . . . .                               ",
"                          . . ; > , ' ) ) ) ) ) ) ) ) ) ! ~ . . { . .                           ",
"                      . . ] ^ / ) ) ) ) ) ) ) ) ) ) ) ) ) ( _ : < [ } . .                       ",
"                    . : | 1 ) ) ) ) ) ) ) ) ) ) ) ) ) ) ) ) ) 2 . 3 4 5 6 .                     ",
"                  . 7 8 ) ) ) ) ) ) ) ) ) ) ) ) ) ) ) ) ) ) ) ) 9 . 0 a b c .                   ",
"                . d e ) ) ) ) ) ) ) ) ) ) ) ) ) ) ) ) ) ) ) ) ) ' f g a a h i .                 ",
"              . j k ) ) ) ) ) ) ) ) ) ) ) l m n n m l ) ) ) ) ) ) o . p a a q r .               ",
"            . d k ) ) ) ) ) ) ) ) ) ) ) s t u v v u t s ) ) ) ) ) w x y a a a q i .             ",
"          . 7 e ) ) ) ) ) ) ) ) ) ) ) z A B C a a C B A z ) ) ) ) ) D E a a a a h c .           ",
"        . : 8 ) ) ) ) ) ) ) ) ) ) ) ) F { h a a a a h { F ) ) ) ) ) G H a a a a a b 6 .         ",
"        . | ) ) ) ) ) ) ) ) ) ) ) ) ) I J a a a a a a J I ) ) ) ) ) K . a a a a a a 5 .         ",
"      . ] 1 ) ) ) ) ) ) ) ) ) ) ) ) ) L M N a a a a N M L ) ) ) ) ) O P a a a a a a 4 } .       ",
"      . ^ ) ) ) ) ) ) ) ) ) ) ) ) ) ) Q . R a a a a R . Q ) ) ) ) ) S T a a a a a a a U .       ",
"    . ; / ) ) ) ) ) ) ) ) ) ) ) ) ) ) V W X Y Z Z Y X W V ) ) ) ) ) `  .a a a a a a a ..+..     ",
"    . > ) ) ) ) ) ) ) ) ) ) ) ) ) ) ) ) @.#.. . . . #.@.) ) ) ) ) $.: %.a a a a a a a a v .     ",
"    . , ) ) ) ) ) ) ) ) ) ) ) ) ) ) ) ) ) ) &.*.*.&.) ) ) ) ) ) ) =.-.;.a a a a a a a a >..     ",
"  . + ' ) ) ) ) ) ) ) ) ) ) ) ) ) ) ) ) ) ) ) ) ) ) ) ) ) ) ) ) ,.'.).a a a a a a a a a !.~..   ",
"  . @ ) ) ) ) ) ) ) ) ) ) ) ) ) ) ) ) ) ) ) ) ) ) ) ) ) ) ) ) / - {.].a a a a a a a a a a ^..   ",
"  . # ) ) ) ) ) ) ) ) ) ) ) ) ) ) ) ) ) ) ) ) ) ) ) ) ) ) ) /.d { (.a a a a a a a a a a a _..   ",
"  . $ ) ) ) ) ) ) ) ) ) ) ) ) ) ) ) ) ) ) ) ) ) ) ) ) ) ) :.n <.[.a a a a a a a a a a a a }..   ",
"  . % ) ) ) ) ) ) ) ) ) ) ) ) ) ) ) ) ) ) ) ) ) ) ) k |.1.. 2.3.a a a a a a a a a a a a a 4..   ",
"  . & ) ) ) ) ) ) ) ) ) ) ) ) ) ) ) ) ) 5.6.7.8.9.0.a.. b.Y !.a a a a a a a a a a a a a a c..   ",
"  . & ) ) ) ) ) ) ) ) ) ) ) ) ) ) d.e.f.. g.h.i.j.k.l.m.n.a a a a a a a a a a a a a a a a c..   ",
"  . % ) ) ) ) ) ) ) ) ) ) ) ) ) z o.. i p.].a a a a a a a a a a a a a a a a a a a a a a a 4..   ",
"  . $ ) ) ) ) ) ) ) ) ) ) ) ) q.] r.s.t.a a a a a a a a a a a a a a a a a a a a a a a a a }..   ",
"  . # ) ) ) ) ) ) ) ) ) ) ) u.x v.w.a a a a a a a a a a a a a a a a a a a a a a a a a a a _..   ",
"  . @ ) ) ) ) ) ) ) ) ) ) x.y.z.A.a a a a a a a a a a a a a a a a a a a a a a a a a a a a ^..   ",
"  . + ' ) ) ) ) ) ) ) ) ) B.. C.a a a a a a a a a a a a a a a a a a a a a a a a a a a a !.~..   ",
"    . , ) ) ) ) ) ) ) ) D.E.F.a a a a a a a G.H.H.G.a a a a a a a a a a a a a a a a a a >..     ",
"    . > ) ) ) ) ) ) ) ) Q . I.a a a a a J.K.. . . . K.J.a a a a a a a a a a a a a a a a v .     ",
"    . ; / ) ) ) ) ) ) ) I T N a a a a L.M.N.O.P.P.O.N.M.L.a a a a a a a a a a a a a a ..+..     ",
"      . ^ ) ) ) ) ) ) ) Q.R.a a a a a 4.. S.) ) ) ) S.. 4.a a a a a a a a a a a a a a U .       ",
"      . ] 1 ) ) ) ) ) ) T.U.a a a a a V.W.d.) ) ) ) d.W.V.a a a a a a a a a a a a a 4 } .       ",
"        . | ) ) ) ) ) ) . X.a a a a a Y.- ) ) ) ) ) ) - Y.a a a a a a a a a a a a a 5 .         ",
"        . : 8 ) ) ) ) ) Z.`.a a a a a  +t e ) ) ) ) e t  +a a a a a a a a a a a a b 6 .         ",
"          . 7 .+) ) ) ) ++@+a a a a a #+X $+%+) ) %+$+X #+a a a a a a a a a a a &+c .           ",
"            . d k ) ) ) *+X C a a a a a s.{ =+> > =+{ s.a a a a a a a a a a a q i .             ",
"              . j k ) ) u.. -+a a a a a a ;+>+b.b.>+;+a a a a a a a a a a a q r .               ",
"                . d .+) ) ,+b.'+a a a a a a a a a a a a a a a a a a a a a &+i .                 ",
"                  . 7 8 ) )+: !+a a a a a a a a a a a a a a a a a a a a b c .                   ",
"                    . : | 1 = . ~+a a a a a a a a a a a a a a a a a 4 5 6 .                     ",
"                      . . ] F o.6 {+L.a a a a a a a a a a a a a ..U } . .                       ",
"                          . . t . . g ]+a a a a a a a a a !.>.v +.. .                           ",
"                              . . . . . ^+/+(+c.c.4.}._.^.~.. . .                               ",
"                                    . . . . . . . . . . . .                                     ",
"                                                                                                "};
