/* XPM */
static char * dvdisaster16_xpm[] = {
"16 16 59 1",
" 	c None",
".	c #222222",
"+	c #4C4C4C",
"@	c #454545",
"#	c #070707",
"$	c #5F5F5F",
"%	c #C8C8C8",
"&	c #FEFEFE",
"*	c #FFFFFF",
"=	c #E0E0E0",
"-	c #3B3C40",
";	c #151A49",
">	c #A8A8A8",
",	c #CCCCCC",
"'	c #EDEDED",
")	c #333B7C",
"!	c #2E3AA2",
"~	c #ABABAB",
"{	c #2C3799",
"]	c #70717D",
"^	c #4658F5",
"/	c #7E7F83",
"(	c #4354EB",
"_	c #7C7C7E",
":	c #1A215B",
"<	c #E7E7E7",
"[	c #595C75",
"}	c #545878",
"|	c #3745C0",
"1	c #313DA8",
"2	c #4658F4",
"3	c #090C21",
"4	c #FAFAFA",
"5	c #CBCBCB",
"6	c #B5B5B5",
"7	c #6F717C",
"8	c #2F3A9B",
"9	c #A9A9AA",
"0	c #333A76",
"a	c #313DAB",
"b	c #4456EE",
"c	c #B8B8B8",
"d	c #2D389A",
"e	c #4C5077",
"f	c #3F50DE",
"g	c #3E4474",
"h	c #262F7A",
"i	c #29327E",
"j	c #F5F5F5",
"k	c #333B7A",
"l	c #2F3BA4",
"m	c #9F9F9F",
"n	c #737481",
"o	c #4152E4",
"p	c #3847C4",
"q	c #171B3E",
"r	c #3E4ED9",
"s	c #030309",
"t	c #131844",
"      .+@#      ",
"    $%&**=-;    ",
"   >***,,*')!   ",
"  >***~{{~*]^!  ",
" $****/((/*_^^: ",
" %****<[[<*}^^| ",
".&********~1^^23",
"+*****45678^^^^;",
"+****90a|b^^^^^;",
".&**cd^^^^^^^^23",
" %**e^fggf^^^^| ",
" $**h^ijji^^^^: ",
"  >*k^lmml^^^!  ",
"   >no^pp^^^!   ",
"    +qr^^2|:    ",
"      st;3      "};
