/* XPM */
static char * dvdisaster32_xpm[] = {
"32 32 116 2",
"  	c None",
". 	c #000000",
"+ 	c #0F0F0F",
"@ 	c #424242",
"# 	c #656565",
"$ 	c #737373",
"% 	c #545454",
"& 	c #111111",
"* 	c #080808",
"= 	c #626262",
"- 	c #C1C1C1",
"; 	c #FBFBFB",
"> 	c #FFFFFF",
", 	c #F7F7F7",
"' 	c #8B8B8B",
") 	c #060817",
"! 	c #020308",
"~ 	c #010101",
"{ 	c #606060",
"] 	c #E4E4E4",
"^ 	c #CBCBCB",
"/ 	c #131316",
"( 	c #2C379A",
"_ 	c #1A215C",
": 	c #000001",
"< 	c #121212",
"[ 	c #B4B4B4",
"} 	c #B9B9B9",
"| 	c #090B1C",
"1 	c #4354EB",
"2 	c #323EAD",
"3 	c #050612",
"4 	c #1D1D1D",
"5 	c #D8D8D8",
"6 	c #C5C5C5",
"7 	c #6F6F6F",
"8 	c #575757",
"9 	c #2A3492",
"0 	c #4658F5",
"a 	c #3B4BD0",
"b 	c #080A1C",
"c 	c #9E9E9E",
"d 	c #263084",
"e 	c #BABABA",
"f 	c #12173F",
"g 	c #131314",
"h 	c #3B4ACE",
"i 	c #EEEEEE",
"j 	c #04050F",
"k 	c #E6E6E6",
"l 	c #070817",
"m 	c #04050D",
"n 	c #3F4FDB",
"o 	c #11163C",
"p 	c #1B225E",
"q 	c #5C5C5C",
"r 	c #28338D",
"s 	c #3542B9",
"t 	c #090A19",
"u 	c #4254E9",
"v 	c #4557F1",
"w 	c #04050E",
"x 	c #D3D3D3",
"y 	c #171718",
"z 	c #313EAC",
"A 	c #989898",
"B 	c #0F0F13",
"C 	c #1C2361",
"D 	c #ECECEC",
"E 	c #A8A8A8",
"F 	c #858585",
"G 	c #7B7B7B",
"H 	c #595959",
"I 	c #141946",
"J 	c #3948C9",
"K 	c #20286E",
"L 	c #DFDFDF",
"M 	c #0A0B13",
"N 	c #161C4E",
"O 	c #212A74",
"P 	c #242D7E",
"Q 	c #3E4ED9",
"R 	c #B5B5B5",
"S 	c #101014",
"T 	c #3543BB",
"U 	c #F9F9F9",
"V 	c #242424",
"W 	c #303CA7",
"X 	c #A3A3A3",
"Y 	c #141A47",
"Z 	c #3644BD",
"` 	c #1E266B",
" .	c #494949",
"..	c #303CA8",
"+.	c #2B3798",
"@.	c #1B1B1D",
"#.	c #8A8A8A",
"$.	c #131313",
"%.	c #4050DF",
"&.	c #4556F1",
"*.	c #070814",
"=.	c #D6D6D6",
"-.	c #3F4FDC",
";.	c #181818",
">.	c #4051E1",
",.	c #9F9F9F",
"'.	c #161C4D",
").	c #1F1F1F",
"!.	c #323FAF",
"~.	c #090A14",
"{.	c #3846C3",
"].	c #030309",
"^.	c #28328A",
"/.	c #4456EF",
"(.	c #060715",
"_.	c #181F56",
"                                                                ",
"                      . + @ # $ $ % & . .                       ",
"                . * = - ; > > > > > , ' * ) ! .                 ",
"              ~ { ] > > > > > > > > > > ^ / ( _ :               ",
"            < [ > > > > > > > > > > > > > } | 1 2 3             ",
"          4 5 > > > > > > > 6 7 7 6 > > > > 8 9 0 a b           ",
"        < 5 > > > > > > > c | d d | c > > > e f 0 0 a 3         ",
"      ~ [ > > > > > > > ; g h 0 0 h g ; > > i j 0 0 0 2 :       ",
"    . { > > > > > > > > k l 0 0 0 0 l k > > > . 0 0 0 0 _ .     ",
"    * ] > > > > > > > > ; g h 0 0 h g ; > > i m 0 0 0 0 n !     ",
"    = > > > > > > > > > > c | d d | c > > > e o 0 0 0 0 0 p     ",
"  . - > > > > > > > > > > > 6 7 7 6 > > > > q r 0 0 0 0 0 s .   ",
"  + ; > > > > > > > > > > > > > > > > > > - t u 0 0 0 0 0 v w   ",
"  @ > > > > > > > > > > > > > > > > > > x y z 0 0 0 0 0 0 0 f   ",
"  # > > > > > > > > > > > > > > > > ; A B ( 0 0 0 0 0 0 0 0 C   ",
"  $ > > > > > > > > > > > D E F G H y I J 0 0 0 0 0 0 0 0 0 K   ",
"  $ > > > > > > > > > L q M N O P ( Q 0 0 0 0 0 0 0 0 0 0 0 K   ",
"  # > > > > > > > > R S P 1 0 0 0 0 0 0 0 0 0 0 0 0 0 0 0 0 C   ",
"  @ > > > > > > > 6 M T 0 0 0 0 0 0 0 0 0 0 0 0 0 0 0 0 0 0 f   ",
"  + ; > > > > > U V W 0 0 0 0 0 0 0 0 0 0 0 0 0 0 0 0 0 0 v w   ",
"  . - > > > > > X Y 0 0 0 0 Z ` ` Z 0 0 0 0 0 0 0 0 0 0 0 s .   ",
"    = > > > > >  ...0 0 0 +.@.#.#.@.+.0 0 0 0 0 0 0 0 0 0 p     ",
"    * ] > > > > $.%.0 0 &.*.=.> > =.*.&.0 0 0 0 0 0 0 0 n !     ",
"    . { > > > > . 0 0 0 -.;.> > > > ;.-.0 0 0 0 0 0 0 0 _ .     ",
"      ~ [ > > > $.>.0 0 &.*.=.> > =.*.&.0 0 0 0 0 0 0 2 :       ",
"        < 5 > >  .z 0 0 0 +.@.#.#.@.+.0 0 0 0 0 0 0 a 3         ",
"          4 5 > ,.'.0 0 0 0 Z ` ` Z 0 0 0 0 0 0 0 a b           ",
"            < [ , ).!.0 0 0 0 0 0 0 0 0 0 0 0 0 2 3             ",
"              ~ { X ~.{.0 0 0 0 0 0 0 0 0 0 n _ :               ",
"                . * ;.].^./.0 0 0 0 0 v s p ! .                 ",
"                      . . (._.K K C f w .                       ",
"                                                                "};
