/* XPM */
static char * dvdisaster64_xpm[] = {
"64 64 125 2",
"  	c None",
". 	c #000000",
"+ 	c #050505",
"@ 	c #363636",
"# 	c #6E6E6E",
"$ 	c #999999",
"% 	c #BDBDBD",
"& 	c #D6D6D6",
"* 	c #E6E6E6",
"= 	c #C2C2C2",
"- 	c #8C8C8C",
"; 	c #404040",
"> 	c #030303",
", 	c #080808",
"' 	c #595959",
") 	c #ABABAB",
"! 	c #F0F0F0",
"~ 	c #FFFFFF",
"{ 	c #DEDEDE",
"] 	c #616161",
"^ 	c #1F1F1F",
"/ 	c #919191",
"( 	c #C9C9C9",
"_ 	c #212121",
": 	c #010102",
"< 	c #192058",
"[ 	c #080B1D",
"} 	c #1A1A1A",
"| 	c #FAFAFA",
"1 	c #454545",
"2 	c #04050F",
"3 	c #3947C6",
"4 	c #2A3593",
"5 	c #070918",
"6 	c #737373",
"7 	c #F5F5F5",
"8 	c #F7F7F7",
"9 	c #474747",
"0 	c #0A0D25",
"a 	c #4254E9",
"b 	c #4354EB",
"c 	c #20286E",
"d 	c #C7C7C7",
"e 	c #262626",
"f 	c #1D2567",
"g 	c #4658F5",
"h 	c #3745BF",
"i 	c #EDEDED",
"j 	c #CFCFCF",
"k 	c #3B4ACE",
"l 	c #4152E4",
"m 	c #141945",
"n 	c #666666",
"o 	c #FCFCFC",
"p 	c #CCCCCC",
"q 	c #1B2260",
"r 	c #4557F3",
"s 	c #1C2362",
"t 	c #E8E8E8",
"u 	c #03040A",
"v 	c #A3A3A3",
"w 	c #020307",
"x 	c #0D112F",
"y 	c #525252",
"z 	c #2E399F",
"A 	c #4253E6",
"B 	c #1B215D",
"C 	c #0D102C",
"D 	c #04040C",
"E 	c #0B0E27",
"F 	c #4556F0",
"G 	c #28328C",
"H 	c #2B3798",
"I 	c #010205",
"J 	c #181F56",
"K 	c #7A7A7A",
"L 	c #2F3BA4",
"M 	c #DBDBDB",
"N 	c #0A0A0A",
"O 	c #3846C4",
"P 	c #333333",
"Q 	c #0F1233",
"R 	c #080A1B",
"S 	c #4051E1",
"T 	c #1E2669",
"U 	c #3644BD",
"V 	c #323FB0",
"W 	c #3441B5",
"X 	c #3F4FDC",
"Y 	c #B8B8B8",
"Z 	c #6B6B6B",
"` 	c #383838",
" .	c #141414",
"..	c #7D7D7D",
"+.	c #171717",
"@.	c #858585",
"#.	c #0F1336",
"$.	c #242E7F",
"%.	c #3442B8",
"&.	c #3E4EDA",
"*.	c #E3E3E3",
"=.	c #171D51",
"-.	c #3A49CB",
";.	c #D9D9D9",
">.	c #060816",
",.	c #3340B3",
"'.	c #2D389D",
").	c #303030",
"!.	c #4050DF",
"~.	c #3543BA",
"{.	c #263087",
"].	c #12163D",
"^.	c #121212",
"/.	c #3D4DD5",
"(.	c #E0E0E0",
"_.	c #3746C2",
":.	c #757575",
"<.	c #090B20",
"[.	c #2B2B2B",
"}.	c #131842",
"|.	c #4455EE",
"1.	c #D1D1D1",
"2.	c #0F0F0F",
"3.	c #5C5C5C",
"4.	c #161C4E",
"                                                                                                                                ",
"                                                      . . . . . . . . . .                                                       ",
"                                              . . . . . . . . . . . . . . . . . .                                               ",
"                                        . . . . + @ # $ % & * * * * = - ; > . . . . . .                                         ",
"                                    . . . , ' ) ! ~ ~ ~ ~ ~ ~ ~ ~ ~ ~ ~ ~ { ] > . . . . . .                                     ",
"                                . . . ^ / ! ~ ~ ~ ~ ~ ~ ~ ~ ~ ~ ~ ~ ~ ~ ~ ~ ~ ( _ . : < [ . . .                                 ",
"                            . . . } $ | ~ ~ ~ ~ ~ ~ ~ ~ ~ ~ ~ ~ ~ ~ ~ ~ ~ ~ ~ ~ ! 1 . 2 3 4 5 . . .                             ",
"                          . . > 6 7 ~ ~ ~ ~ ~ ~ ~ ~ ~ ~ ~ ~ ~ ~ ~ ~ ~ ~ ~ ~ ~ ~ ~ 8 9 . 0 a b c : . .                           ",
"                        . . ^ d ~ ~ ~ ~ ~ ~ ~ ~ ~ ~ ~ ~ ~ ~ ~ ~ ~ ~ ~ ~ ~ ~ ~ ~ ~ ~ ! e . f g g h [ . .                         ",
"                      . . 9 i ~ ~ ~ ~ ~ ~ ~ ~ ~ ~ ~ ~ ~ ~ ~ ~ ~ ~ ~ ~ ~ ~ ~ ~ ~ ~ ~ ~ j + : k g g l m . .                       ",
"                    . . n o ~ ~ ~ ~ ~ ~ ~ ~ ~ ~ ~ ~ ~ ~ ~ ~ i p p i ~ ~ ~ ~ ~ ~ ~ ~ ~ ~ # . q g g g r s . .                     ",
"                  . . 6 ~ ~ ~ ~ ~ ~ ~ ~ ~ ~ ~ ~ ~ ~ ~ ~ j 9 > . . > 9 j ~ ~ ~ ~ ~ ~ ~ ~ t + u a g g g g c . .                   ",
"                . . n ~ ~ ~ ~ ~ ~ ~ ~ ~ ~ ~ ~ ~ ~ ~ ~ v , . w x x w . , v ~ ~ ~ ~ ~ ~ ~ ~ y . z g g g g g s . .                 ",
"              . . 9 o ~ ~ ~ ~ ~ ~ ~ ~ ~ ~ ~ ~ ~ ~ ~ j , . f A g g A f . , j ~ ~ ~ ~ ~ ~ ~ $ . B g g g g g r m . .               ",
"            . . ^ i ~ ~ ~ ~ ~ ~ ~ ~ ~ ~ ~ ~ ~ ~ ~ ~ 9 . f g g g g g g f . 9 ~ ~ ~ ~ ~ ~ ~ p . C g g g g g g l [ . .             ",
"            . > d ~ ~ ~ ~ ~ ~ ~ ~ ~ ~ ~ ~ ~ ~ ~ ~ i > w A g g g g g g A w > i ~ ~ ~ ~ ~ ~ i . 2 g g g g g g g h : .             ",
"          . . 6 ~ ~ ~ ~ ~ ~ ~ ~ ~ ~ ~ ~ ~ ~ ~ ~ ~ p . x g g g g g g g g x . p ~ ~ ~ ~ ~ ~ ~ . . g g g g g g g g c . .           ",
"          . } 7 ~ ~ ~ ~ ~ ~ ~ ~ ~ ~ ~ ~ ~ ~ ~ ~ ~ p . x g g g g g g g g x . p ~ ~ ~ ~ ~ ~ ~ . . g g g g g g g g b 5 .           ",
"        . . $ ~ ~ ~ ~ ~ ~ ~ ~ ~ ~ ~ ~ ~ ~ ~ ~ ~ ~ i > w A g g g g g g A w > i ~ ~ ~ ~ ~ ~ i . D g g g g g g g g g 4 . .         ",
"        . ^ | ~ ~ ~ ~ ~ ~ ~ ~ ~ ~ ~ ~ ~ ~ ~ ~ ~ ~ ~ 9 . f g g g g g g f . 9 ~ ~ ~ ~ ~ ~ ~ p . E g g g g g g g g g F [ .         ",
"      . . / ~ ~ ~ ~ ~ ~ ~ ~ ~ ~ ~ ~ ~ ~ ~ ~ ~ ~ ~ ~ j , . f A g g A f . , j ~ ~ ~ ~ ~ ~ ~ $ . < g g g g g g g g g g G . .       ",
"      . , ! ~ ~ ~ ~ ~ ~ ~ ~ ~ ~ ~ ~ ~ ~ ~ ~ ~ ~ ~ ~ ~ v , . w x x w . , v ~ ~ ~ ~ ~ ~ ~ ~ y . H g g g g g g g g g g A w .       ",
"      . ' ~ ~ ~ ~ ~ ~ ~ ~ ~ ~ ~ ~ ~ ~ ~ ~ ~ ~ ~ ~ ~ ~ ~ j 9 > . . > 9 j ~ ~ ~ ~ ~ ~ ~ ~ ! , I l g g g g g g g g g g g J .       ",
"    . . ) ~ ~ ~ ~ ~ ~ ~ ~ ~ ~ ~ ~ ~ ~ ~ ~ ~ ~ ~ ~ ~ ~ ~ ~ ~ i p p i ~ ~ ~ ~ ~ ~ ~ ~ ~ ~ K . J g g g g g g g g g g g g L . .     ",
"    . + ! ~ ~ ~ ~ ~ ~ ~ ~ ~ ~ ~ ~ ~ ~ ~ ~ ~ ~ ~ ~ ~ ~ ~ ~ ~ ~ ~ ~ ~ ~ ~ ~ ~ ~ ~ ~ ~ ~ M N . O g g g g g g g g g g g g A I .     ",
"    . @ ~ ~ ~ ~ ~ ~ ~ ~ ~ ~ ~ ~ ~ ~ ~ ~ ~ ~ ~ ~ ~ ~ ~ ~ ~ ~ ~ ~ ~ ~ ~ ~ ~ ~ ~ ~ ~ ~ 8 P . < g g g g g g g g g g g g g g Q .     ",
"    . # ~ ~ ~ ~ ~ ~ ~ ~ ~ ~ ~ ~ ~ ~ ~ ~ ~ ~ ~ ~ ~ ~ ~ ~ ~ ~ ~ ~ ~ ~ ~ ~ ~ ~ ~ ~ ~ o ' . R S g g g g g g g g g g g g g g T .     ",
"  . . $ ~ ~ ~ ~ ~ ~ ~ ~ ~ ~ ~ ~ ~ ~ ~ ~ ~ ~ ~ ~ ~ ~ ~ ~ ~ ~ ~ ~ ~ ~ ~ ~ ~ ~ ~ ~ 8 ' . w U g g g g g g g g g g g g g g g 4 . .   ",
"  . . % ~ ~ ~ ~ ~ ~ ~ ~ ~ ~ ~ ~ ~ ~ ~ ~ ~ ~ ~ ~ ~ ~ ~ ~ ~ ~ ~ ~ ~ ~ ~ ~ ~ ~ ~ M P . w V g g g g g g g g g g g g g g g g W . .   ",
"  . . & ~ ~ ~ ~ ~ ~ ~ ~ ~ ~ ~ ~ ~ ~ ~ ~ ~ ~ ~ ~ ~ ~ ~ ~ ~ ~ ~ ~ ~ ~ ~ ~ ~ ! K N . R U g g g g g g g g g g g g g g g g g k . .   ",
"  . . * ~ ~ ~ ~ ~ ~ ~ ~ ~ ~ ~ ~ ~ ~ ~ ~ ~ ~ ~ ~ ~ ~ ~ ~ ~ ~ ~ ~ ~ i p $ y , . . < S g g g g g g g g g g g g g g g g g g X . .   ",
"  . . * ~ ~ ~ ~ ~ ~ ~ ~ ~ ~ ~ ~ ~ ~ ~ ~ ~ ~ ~ ~ ~ ~ | Y Z `  .. . . . . . I J O g g g g g g g g g g g g g g g g g g g g X . .   ",
"  . . * ~ ~ ~ ~ ~ ~ ~ ~ ~ ~ ~ ~ ~ ~ ~ ~ ~ ~ ~ ~ t ..+.. . . . . . D E < H l g g g g g g g g g g g g g g g g g g g g g g X . .   ",
"  . . * ~ ~ ~ ~ ~ ~ ~ ~ ~ ~ ~ ~ ~ ~ ~ ~ ~ ~ | @.N . . #.$.%.&.g g g g g g g g g g g g g g g g g g g g g g g g g g g g g X . .   ",
"  . . & ~ ~ ~ ~ ~ ~ ~ ~ ~ ~ ~ ~ ~ ~ ~ ~ ~ *.` . . =.-.g g g g g g g g g g g g g g g g g g g g g g g g g g g g g g g g g k . .   ",
"  . . % ~ ~ ~ ~ ~ ~ ~ ~ ~ ~ ~ ~ ~ ~ ~ ~ ;.} . >.,.g g g g g g g g g g g g g g g g g g g g g g g g g g g g g g g g g g g W . .   ",
"  . . $ ~ ~ ~ ~ ~ ~ ~ ~ ~ ~ ~ ~ ~ ~ ~ *.} . Q X g g g g g g g g g g g g g g g g g g g g g g g g g g g g g g g g g g g g 4 . .   ",
"    . # ~ ~ ~ ~ ~ ~ ~ ~ ~ ~ ~ ~ ~ ~ | ` . Q A g g g g g g g g g g g g g g g g g g g g g g g g g g g g g g g g g g g g g T .     ",
"    . @ ~ ~ ~ ~ ~ ~ ~ ~ ~ ~ ~ ~ ~ ~ @.. >.X g g g g g g g g g g g g g g g g g g g g g g g g g g g g g g g g g g g g g g Q .     ",
"    . + ! ~ ~ ~ ~ ~ ~ ~ ~ ~ ~ ~ ~ t N . ,.g g g g g g g g g g g g g g g g g g g g g g g g g g g g g g g g g g g g g g A I .     ",
"    . . ) ~ ~ ~ ~ ~ ~ ~ ~ ~ ~ ~ ~ ... =.g g g g g g g g g g l O O l g g g g g g g g g g g g g g g g g g g g g g g g g L . .     ",
"      . ' ~ ~ ~ ~ ~ ~ ~ ~ ~ ~ ~ | +.. -.g g g g g g g g 3 m : . . : m 3 g g g g g g g g g g g g g g g g g g g g g g g J .       ",
"      . , ! ~ ~ ~ ~ ~ ~ ~ ~ ~ ~ Y . #.g g g g g g g g '.w . , ).)., . w '.g g g g g g g g g g g g g g g g g g g g g A w .       ",
"      . . / ~ ~ ~ ~ ~ ~ ~ ~ ~ ~ Z . $.g g g g g g g 3 w . Z ! ~ ~ ! Z . w 3 g g g g g g g g g g g g g g g g g g g g G . .       ",
"        . ^ | ~ ~ ~ ~ ~ ~ ~ ~ ~ ` . %.g g g g g g g m . Z ~ ~ ~ ~ ~ ~ Z . m g g g g g g g g g g g g g g g g g g g F [ .         ",
"        . . $ ~ ~ ~ ~ ~ ~ ~ ~ ~  .. &.g g g g g g l : , ! ~ ~ ~ ~ ~ ~ ! , : l g g g g g g g g g g g g g g g g g g 4 . .         ",
"          . } 7 ~ ~ ~ ~ ~ ~ ~ ~ . . g g g g g g g O . ).~ ~ ~ ~ ~ ~ ~ ~ ).. O g g g g g g g g g g g g g g g g g b 5 .           ",
"          . . 6 ~ ~ ~ ~ ~ ~ ~ ~ . . g g g g g g g O . ).~ ~ ~ ~ ~ ~ ~ ~ ).. O g g g g g g g g g g g g g g g g g c . .           ",
"            . > d ~ ~ ~ ~ ~ ~ ~  .. !.g g g g g g l : , ! ~ ~ ~ ~ ~ ~ ! , : l g g g g g g g g g g g g g g g g h : .             ",
"            . . ^ i ~ ~ ~ ~ ~ ~ ` . ~.g g g g g g g m . Z ~ ~ ~ ~ ~ ~ Z . m g g g g g g g g g g g g g g g g l [ . .             ",
"              . . 9 o ~ ~ ~ ~ ~ Z . {.g g g g g g g 3 w . Z ! ~ ~ ! Z . w 3 g g g g g g g g g g g g g g g r m . .               ",
"                . . n ~ ~ ~ ~ ~ Y . ].g g g g g g g g '.w . , ).)., . w '.g g g g g g g g g g g g g g g g s . .                 ",
"                  . . 6 ~ ~ ~ ~ | ^.: /.g g g g g g g g 3 m : . . : m 3 g g g g g g g g g g g g g g g g c . .                   ",
"                    . . n o ~ ~ ~ 6 . B g g g g g g g g g g l O O l g g g g g g g g g g g g g g g g r s . .                     ",
"                      . . 9 i ~ ~ (.+ : _.g g g g g g g g g g g g g g g g g g g g g g g g g g g g l m . .                       ",
"                        . . ^ d ~ ~ :.. <.A g g g g g g g g g g g g g g g g g g g g g g g g g g h [ . .                         ",
"                          . . > 6 7 7 [.. }.|.g g g g g g g g g g g g g g g g g g g g g g g b c : . .                           ",
"                            . . . } $ 1.2.. m A g g g g g g g g g g g g g g g g g g g g F 4 5 . . .                             ",
"                                . . . ^ 3.> . 0 3 g g g g g g g g g g g g g g g g g A G [ . . .                                 ",
"                                    . . . . . . I T !.g g g g g g g g g g g g A L J w . . .                                     ",
"                                        . . . . . . I 4.4 O X X X X k W 4 T Q I . . . .                                         ",
"                                              . . . . . . . . . . . . . . . . . .                                               ",
"                                                      . . . . . . . . . .                                                       ",
"                                                                                                                                "};
