/* XPM */
static char * dvdisaster24_xpm[] = {
"24 24 102 2",
"  	c None",
". 	c #000000",
"+ 	c #040404",
"@ 	c #464646",
"# 	c #8F8F8F",
"$ 	c #BFBFBF",
"% 	c #D5D5D5",
"& 	c #D3D3D3",
"* 	c #A5A5A5",
"= 	c #3B3B3B",
"- 	c #000101",
"; 	c #010101",
"> 	c #5B5B5B",
", 	c #DCDCDC",
"' 	c #FFFFFF",
") 	c #FEFEFE",
"! 	c #818181",
"~ 	c #141946",
"{ 	c #191F57",
"] 	c #000001",
"^ 	c #101010",
"/ 	c #AFAFAF",
"( 	c #616161",
"_ 	c #3441B5",
": 	c #303CA8",
"< 	c #040610",
"[ 	c #CACACA",
"} 	c #9B9B9B",
"| 	c #242638",
"1 	c #E6E6E6",
"2 	c #191F4F",
"3 	c #4658F5",
"4 	c #3746C2",
"5 	c #D6D6D6",
"6 	c #171C4B",
"7 	c #4557F2",
"8 	c #32333E",
"9 	c #AEAEAE",
"0 	c #273188",
"a 	c #3F3F3F",
"b 	c #E9E9E9",
"c 	c #1B1E38",
"d 	c #3C4BD1",
"e 	c #292B3B",
"f 	c #3C4CD3",
"g 	c #010104",
"h 	c #CECECE",
"i 	c #D2D2D2",
"j 	c #1B225F",
"k 	c #131844",
"l 	c #FBFBFB",
"m 	c #404044",
"n 	c #3A49CD",
"o 	c #273189",
"p 	c #EFEFEF",
"q 	c #4F4F50",
"r 	c #2A3594",
"s 	c #3442B8",
"t 	c #D7D7D7",
"u 	c #A7A7A7",
"v 	c #999999",
"w 	c #6B6B6B",
"x 	c #1F223C",
"y 	c #323FB0",
"z 	c #3A49CC",
"A 	c #C5C5C5",
"B 	c #3A3B43",
"C 	c #1B225E",
"D 	c #293490",
"E 	c #2D399E",
"F 	c #3947C7",
"G 	c #4658F4",
"H 	c #AAAAAA",
"I 	c #161B43",
"J 	c #3F50DE",
"K 	c #DFDFDF",
"L 	c #181C3A",
"M 	c #4455ED",
"N 	c #6E6E6E",
"O 	c #3644BD",
"P 	c #3847C6",
"Q 	c #192058",
"R 	c #27293B",
"S 	c #4050E0",
"T 	c #2F3039",
"U 	c #DADADA",
"V 	c #13173D",
"W 	c #8E8E8E",
"X 	c #3B4ACE",
"Y 	c #4C4D4E",
"Z 	c #FCFCFC",
"` 	c #565657",
" .	c #3E4ED9",
"..	c #2A3595",
"+.	c #252738",
"@.	c #C0C0C0",
"#.	c #1A215A",
"$.	c #4A4A4A",
"%.	c #242D7C",
"&.	c #020202",
"*.	c #11163C",
"=.	c #2F3BA3",
"                    . . . .                     ",
"              + @ # $ % & * = . -               ",
"          ; > , ' ' ' ' ' ' ) ! ~ { ]           ",
"        ^ / ' ' ' ' ' ' ' ' ' ' ( _ : <         ",
"      ^ [ ' ' ' ' ' } | | } ' ' 1 2 3 4 <       ",
"    ; / ' ' ' ' ' 5 6 7 7 6 5 ' ' 8 3 3 : ]     ",
"    > ' ' ' ' ' ' 9 0 3 3 0 9 ' ' a 3 3 3 {     ",
"  + , ' ' ' ' ' ' b c d d c b ' ' e 3 3 3 f g   ",
"  @ ' ' ' ' ' ' ' ' h > > h ' ' i j 3 3 3 3 k   ",
"  # ' ' ' ' ' ' ' ' ' ' ' ' ' l m n 3 3 3 3 o   ",
". $ ' ' ' ' ' ' ' ' ' ' ' ' p q r 3 3 3 3 3 s . ",
". % ' ' ' ' ' ' ' ' t u v w x y 3 3 3 3 3 3 z . ",
". % ' ' ' ' ' ' A B C D E F G 3 3 3 3 3 3 3 z . ",
". $ ' ' ' ' ' H I J 3 3 3 3 3 3 3 3 3 3 3 3 s . ",
"  # ' ' ' ' K L M 3 3 3 3 3 3 3 3 3 3 3 3 3 o   ",
"  @ ' ' ' ' N O 3 3 P Q Q P 3 3 3 3 3 3 3 3 k   ",
"  + , ' ' ' R 3 3 S T U U T S 3 3 3 3 3 3 f g   ",
"    > ' ' ' V 3 3 : W ' ' W : 3 3 3 3 3 3 {     ",
"    ; / ' ' x 3 3 X Y Z Z Y X 3 3 3 3 3 : ]     ",
"      ^ [ ' `  .3 3 ..+.+...3 3 3 3 3 4 <       ",
"        ^ / @.#.3 3 3 3 3 3 3 3 3 3 : <         ",
"          ; > $.%.G 3 3 3 3 3 3 f { ]           ",
"              &.. *.=.z z s o k g               ",
"                    . . . .                     "};
